<svg version="1.1" id="Layer_1" xmlns="http://www.w3.org/2000/svg" xmlns:xlink="http://www.w3.org/1999/xlink" x="0px" y="0px"
   viewBox="0 0 1200 400" style="enable-background:new 0 0 1200 400;" xml:space="preserve">
<style type="text/css">
  .st0{fill:#5E5E5D;}
  .st1{fill:#FFFFFF;}
</style>
<g>
  <g>
    <path class="st0" d="M240.16,360.8h-16.48v14.65c0,2.11-1.56,3.21-3.21,3.21c-1.56,0-3.21-1.1-3.21-3.21v-48.26
      c0-1.74,1.47-3.21,3.21-3.21h19.69c7.33,0,12.82,4.85,12.82,12.82v11.17C252.98,355.95,247.49,360.8,240.16,360.8z M246.57,336.81
      c0-4.21-2.38-6.41-6.41-6.41h-16.48v24h16.48c4.03,0,6.41-2.2,6.41-6.41V336.81z"/>
    <path class="st0" d="M308.76,378.57c-1.37,0-2.75-0.82-3.11-2.66c-0.73-4.21-1.47-8.52-2.11-12.82H285.4l-2.66,12.82
      c-0.37,1.74-1.65,2.56-3.02,2.56c-1.65,0-3.3-1.19-3.3-3.11c0-0.28-0.09-0.46,0-0.73c3.02-14.84,9.16-44.6,9.16-44.6
      c0.92-4.49,4.49-6.5,9.16-6.5c6.69,0,8.7,3.66,9.71,9.16l7.51,42.04c0,0.28,0,0.55,0,0.73
      C311.96,377.38,310.4,378.57,308.76,378.57z M297.67,331.77c-0.37-1.65-1.37-1.83-2.93-1.83c-2.2,0-2.84,1.19-3.39,3.85
      l-4.67,22.9h15.94L297.67,331.77z"/>
    <path class="st0" d="M368.38,378.3h-3.66c-0.82,0-2.56-1.19-2.93-1.92l-18.59-42.22v41.3c0,2.11-1.56,3.21-3.21,3.21
      c-1.56,0-3.21-1.1-3.21-3.21v-48.26c0-1.74,1.47-3.21,3.21-3.21h3.66c0.82,0,2.56,1.19,2.93,1.92l18.59,42.22v-41.21
      c0-2.11,1.56-3.21,3.21-3.21c1.56,0,3.21,1.1,3.21,3.21v48.17C371.58,376.83,370.11,378.3,368.38,378.3z"/>
    <path class="st0" d="M421.95,378.21h-10.07c-7.14,0-12.82-4.76-12.82-12.82v-28.57c0-8.06,5.68-12.82,12.82-12.82h10.07
      c7.33,0,12.82,4.85,12.82,12.82c0,2.11-1.56,3.21-3.21,3.21c-1.56,0-3.21-1.1-3.21-3.21c0-4.21-2.38-6.41-6.41-6.41h-10.07
      c-3.85,0-6.41,2.2-6.41,6.41v28.57c0,4.21,2.56,6.41,6.41,6.41h10.07c4.03,0,6.41-2.2,6.41-6.41c0-2.11,1.56-3.21,3.21-3.21
      c1.56,0,3.21,1.1,3.21,3.21C434.77,373.35,429.28,378.21,421.95,378.21z"/>
    <path class="st0" d="M491,378.57c-1.37,0-2.75-0.82-3.11-2.66c-0.73-4.21-1.47-8.52-2.11-12.82h-18.13l-2.66,12.82
      c-0.37,1.74-1.65,2.56-3.02,2.56c-1.65,0-3.3-1.19-3.3-3.11c0-0.28-0.09-0.46,0-0.73c3.02-14.84,9.16-44.6,9.16-44.6
      c0.92-4.49,4.49-6.5,9.16-6.5c6.69,0,8.7,3.66,9.71,9.16l7.51,42.04c0,0.28,0,0.55,0,0.73C494.21,377.38,492.65,378.57,491,378.57
      z M479.92,331.77c-0.37-1.65-1.37-1.83-2.93-1.83c-2.2,0-2.84,1.19-3.39,3.85l-4.67,22.9h15.94L479.92,331.77z"/>
    <path class="st0" d="M553.09,378.66c-0.92,0-1.74-0.37-2.47-1.37l-17.22-23.72l-7.88,9.62v12.18c0,2.11-1.56,3.21-3.21,3.21
      c-1.56,0-3.21-1.1-3.21-3.21v-48.45c0-2.11,1.56-3.21,3.21-3.21c1.56,0,3.21,1.1,3.21,3.21v26.1l22.8-28.12
      c0.73-0.92,1.65-1.28,2.47-1.28c1.74,0,3.3,1.47,3.3,3.21c0,0.64-0.27,1.46-0.82,2.11l-15.75,19.42l18.23,25.09
      c0.46,0.64,0.73,1.28,0.73,1.92C556.48,377.11,554.83,378.66,553.09,378.66z"/>
    <path class="st0" d="M610.7,378.21h-28.48c-1.74,0-3.21-1.46-3.21-3.21v-47.9c0-1.74,1.47-3.21,3.21-3.21h27.57
      c2.11,0,3.21,1.56,3.21,3.21c0,1.56-1.1,3.21-3.21,3.21h-24.36v17.22h10.81c2.11,0,3.21,1.56,3.21,3.21c0,1.56-1.1,3.21-3.21,3.21
      h-10.81v17.86h25.28c2.11,0,3.21,1.56,3.21,3.21C613.9,376.56,612.8,378.21,610.7,378.21z"/>
    <path class="st0" d="M709.51,378.66c-1.56,0-3.21-1.1-3.21-3.3v-22.9h-23.26v22.9c0,2.2-1.56,3.3-3.21,3.3
      c-1.56,0-3.21-1.1-3.21-3.3v-48.45c0-2.2,1.56-3.3,3.21-3.3c1.56,0,3.21,1.1,3.21,3.3v19.14h23.26v-19.14c0-2.2,1.56-3.3,3.21-3.3
      c1.56,0,3.21,1.1,3.21,3.3v48.45C712.71,377.56,711.16,378.66,709.51,378.66z"/>
    <path class="st0" d="M763.08,378.21h-10.07c-7.14,0-12.82-4.76-12.82-12.82v-28.57c0-8.06,5.68-12.82,12.82-12.82h10.07
      c7.33,0,12.82,4.85,12.82,12.82v28.57C775.9,373.35,770.41,378.21,763.08,378.21z M769.49,336.81c0-4.21-2.38-6.41-6.41-6.41
      h-10.07c-3.85,0-6.41,2.2-6.41,6.41v28.57c0,4.21,2.56,6.41,6.41,6.41h10.07c4.03,0,6.41-2.2,6.41-6.41V336.81z"/>
    <path class="st0" d="M826.27,378.21H816.2c-7.14,0-12.82-4.76-12.82-12.82v-38.19c0-2.11,1.56-3.21,3.21-3.21
      c1.56,0,3.21,1.1,3.21,3.21v38.19c0,4.21,2.56,6.41,6.41,6.41h10.07c4.03,0,6.41-2.11,6.41-6.41v-38.19
      c0-2.11,1.56-3.21,3.21-3.21c1.56,0,3.21,1.1,3.21,3.21v38.19C839.09,373.35,833.6,378.21,826.27,378.21z"/>
    <path class="st0" d="M889,378.21h-10.07c-7.24,0-12.82-5.04-12.82-12.91c0-2.11,1.56-3.21,3.21-3.21c1.56,0,3.21,1.1,3.21,3.21
      c0,4.21,2.56,6.5,6.41,6.5H889c4.03,0,6.41-2.2,6.41-6.41v-6.04c0-4.03-0.09-6.04-11.45-6.04c-11.54,0-17.86-2.11-17.86-14.29
      v-2.2c0-8.06,5.68-12.82,12.82-12.82H889c7.42,0,12.82,4.85,12.82,12.82v0.55c0,2.11-1.56,3.21-3.21,3.21
      c-1.56,0-3.21-1.1-3.21-3.21v-0.55c0-4.3-2.38-6.41-6.41-6.41h-10.07c-3.85,0-6.41,2.2-6.41,6.41v2.2c0,6.69,1.1,7.88,11.45,7.88
      c12.27,0,17.86,2.75,17.86,12.46v6.04C901.83,373.35,896.33,378.21,889,378.21z"/>
    <path class="st0" d="M960.53,378.21h-28.48c-1.74,0-3.21-1.46-3.21-3.21v-47.9c0-1.74,1.47-3.21,3.21-3.21h27.57
      c2.11,0,3.21,1.56,3.21,3.21c0,1.56-1.1,3.21-3.21,3.21h-24.36v17.22h10.81c2.11,0,3.21,1.56,3.21,3.21c0,1.56-1.1,3.21-3.21,3.21
      h-10.81v17.86h25.28c2.11,0,3.21,1.56,3.21,3.21C963.73,376.56,962.64,378.21,960.53,378.21z"/>
  </g>
  <g>
    <path class="st0" d="M1000.07,40c-0.63,0.14-1.39-0.15-1.58-0.99l-3.91-17.09l-0.07,0.02l-2.81,10.1
      c-0.17,0.62-0.55,0.98-0.96,1.07c-0.41,0.09-0.91-0.06-1.33-0.55l-6.83-7.86l-0.07,0.02l3.9,17.05c0.19,0.85-0.33,1.43-1,1.58
      c-0.63,0.14-1.39-0.15-1.58-0.99l-4.44-19.41c-0.16-0.7,0.29-1.42,0.99-1.58l1.47-0.34c0.29-0.07,1.05,0.19,1.26,0.41l6.69,7.54
      l2.78-9.71c0.09-0.29,0.7-0.86,0.99-0.92l1.47-0.34c0.7-0.16,1.42,0.29,1.58,0.99l4.44,19.41
      C1001.26,39.27,1000.74,39.85,1000.07,40z"/>
    <path class="st0" d="M1022.34,37.99l-4.16,0.11c-2.95,0.08-5.34-1.83-5.42-5.15l-0.3-11.79c-0.08-3.32,2.21-5.35,5.15-5.42
      l4.16-0.11c3.02-0.08,5.34,1.87,5.42,5.15l0.3,11.79C1027.58,35.85,1025.36,37.91,1022.34,37.99z M1024.55,20.85
      c-0.04-1.74-1.05-2.62-2.71-2.58l-4.16,0.11c-1.59,0.04-2.62,0.97-2.58,2.71l0.3,11.79c0.04,1.74,1.12,2.62,2.71,2.58l4.16-0.11
      c1.66-0.04,2.62-0.97,2.58-2.71L1024.55,20.85z"/>
    <path class="st0" d="M1052.19,40.8l-1.49-0.24c-0.34-0.05-0.97-0.65-1.07-0.98l-4.77-18.42l-2.74,16.82
      c-0.14,0.86-0.85,1.2-1.52,1.09c-0.63-0.1-1.23-0.66-1.09-1.52l3.2-19.65c0.12-0.71,0.81-1.21,1.52-1.09l1.49,0.24
      c0.34,0.05,0.97,0.65,1.07,0.98l4.77,18.42l2.73-16.78c0.14-0.86,0.85-1.2,1.52-1.09c0.63,0.1,1.23,0.66,1.09,1.52l-3.19,19.62
      C1053.59,40.41,1052.9,40.91,1052.19,40.8z"/>
    <path class="st0" d="M1081.51,28.91l-4.83-1.65l-6.03,17.59c-0.28,0.82-1.04,1.04-1.68,0.82c-0.61-0.21-1.1-0.86-0.82-1.68
      l6.03-17.59l-4.83-1.65c-0.82-0.28-1.04-1.04-0.82-1.68c0.21-0.61,0.86-1.1,1.68-0.82l12.16,4.17c0.82,0.28,1.04,1.04,0.82,1.68
      C1082.98,28.7,1082.33,29.19,1081.51,28.91z"/>
    <path class="st0" d="M1094.82,57.44c-0.5-0.27-0.84-0.84-0.61-1.57c0.56-1.67,1.13-3.38,1.74-5.07l-6.59-3.54l-3.47,4.14
      c-0.47,0.56-1.1,0.61-1.6,0.34c-0.6-0.32-0.97-1.08-0.59-1.78c0.05-0.1,0.06-0.18,0.14-0.27c3.99-4.8,12.03-14.43,12.03-14.43
      c1.21-1.45,2.9-1.49,4.6-0.58c2.43,1.3,2.45,3.03,1.74,5.22l-5.47,16.75c-0.05,0.1-0.11,0.2-0.14,0.27
      C1096.22,57.63,1095.42,57.76,1094.82,57.44z M1099.92,38.26c0.19-0.67-0.14-0.93-0.71-1.24c-0.8-0.43-1.26-0.12-1.98,0.74
      l-6.17,7.41l5.79,3.11L1099.92,38.26z"/>
    <path class="st0" d="M1112.35,69.71l-3.25-2.59c-2.3-1.84-2.91-4.84-0.83-7.44l9.84-12.31c0.54-0.68,1.33-0.63,1.86-0.21
      c0.5,0.4,0.75,1.18,0.21,1.86l-9.84,12.31c-1.08,1.36-0.82,2.73,0.42,3.72l3.25,2.59c1.3,1.04,2.61,0.97,3.72-0.42l9.84-12.31
      c0.54-0.68,1.33-0.63,1.86-0.21c0.5,0.4,0.75,1.18,0.21,1.86l-9.84,12.31C1117.74,71.44,1114.72,71.59,1112.35,69.71z"/>
    <path class="st0" d="M1133.98,91.98c-0.25-0.29-0.36-0.64-0.24-1.14l2.76-11.77l-5.13,0.13l-3.8,3.29
      c-0.66,0.57-1.42,0.38-1.87-0.14c-0.42-0.49-0.52-1.3,0.14-1.87l15.13-13.07c0.66-0.57,1.42-0.38,1.87,0.14
      c0.42,0.49,0.52,1.3-0.14,1.87l-8.15,7.04l14.93-0.46c0.48-0.02,0.85,0.17,1.07,0.43c0.47,0.54,0.43,1.42-0.11,1.89
      c-0.2,0.17-0.53,0.31-0.88,0.31l-10.31,0.32l-2.92,12.46c-0.08,0.32-0.2,0.57-0.4,0.75C1135.38,92.62,1134.45,92.52,1133.98,91.98
      z"/>
    <path class="st0" d="M1138.8,105.9c-0.36-0.09-0.65-0.27-0.81-0.52c-0.36-0.58-0.16-1.41,0.42-1.77c0.23-0.14,0.54-0.2,0.91-0.11
      c0.92,0.19,1.79,0.46,2.68,0.62c0.08-0.01,0.51,0.04,0.51,0.04c-0.23-0.3-0.35-1.07-0.33-1.48c0.03-0.68,0.43-1.68,1.4-2.27
      c1.48-0.91,3.3-0.47,4.23,1.04c0.91,1.48,0.43,3.46-1.05,4.36c-0.84,0.51-1.71,0.83-2.6,0.89
      C1142.31,106.85,1140.6,106.31,1138.8,105.9z"/>
    <path class="st0" d="M1160.13,147.92l-0.38-1.46c-0.08-0.33,0.21-1.15,0.46-1.37l14.94-11.79l-16.5,4.27
      c-0.84,0.22-1.44-0.29-1.61-0.95c-0.16-0.62,0.11-1.39,0.95-1.61l19.28-4.99c0.69-0.18,1.43,0.25,1.61,0.95l0.38,1.46
      c0.09,0.33-0.21,1.15-0.46,1.37l-14.94,11.79l16.46-4.26c0.84-0.22,1.44,0.29,1.61,0.95c0.16,0.62-0.11,1.39-0.95,1.61
      l-19.24,4.98C1161.05,149.05,1160.31,148.62,1160.13,147.92z"/>
    <path class="st0" d="M1163.29,173.88l-0.88-11.72c-0.05-0.72,0.5-1.36,1.22-1.42l19.7-1.48c0.72-0.05,1.36,0.5,1.42,1.22
      l0.85,11.34c0.07,0.87-0.54,1.37-1.22,1.42c-0.64,0.05-1.35-0.35-1.42-1.22l-0.75-10.02l-7.08,0.53l0.33,4.45
      c0.07,0.87-0.54,1.37-1.22,1.42c-0.64,0.05-1.35-0.35-1.42-1.22l-0.33-4.45l-7.35,0.55l0.78,10.4c0.06,0.87-0.54,1.37-1.22,1.42
      C1164.06,175.15,1163.35,174.75,1163.29,173.88z"/>
    <path class="st0" d="M1164.8,202.23c-2.68-0.49-3.16-3.7-2.96-5.5c0.08-0.75,0.7-2.54,1.54-3.55c-0.55-0.86-0.88-2.31-0.72-3.73
      c0.2-1.8,1.38-4.83,4.11-4.71c2.65,0.11,17.58,0.95,17.58,0.95l0.04,0l0.08,0.01c0.86,0.1,1.2,0.78,1.13,1.46
      c-0.07,0.64-0.56,1.23-1.39,1.17c0,0-14.93-0.84-17.58-0.95c-0.68-0.04-1.21,1.31-1.33,2.36c-0.08,0.71,0.07,1.72,0.6,2.43
      l10.25,1.15c0.86,0.1,1.24,0.79,1.17,1.46c-0.07,0.64-0.6,1.26-1.46,1.17l-10.25-1.15c-0.67,0.57-1.05,1.59-1.12,2.23
      c-0.12,1.09,0.1,2.48,0.77,2.6c2.61,0.48,17.36,2.87,17.36,2.87c0.82,0.13,1.16,0.82,1.09,1.45c-0.08,0.68-0.56,1.27-1.42,1.17
      l-0.08-0.01l-0.04,0C1182.16,205.09,1167.41,202.71,1164.8,202.23z"/>
    <path class="st0" d="M1165.99,250.85l-8.42-10.6l-6.65-3.08c-0.79-0.37-0.93-1.14-0.65-1.76c0.27-0.58,0.97-1.01,1.75-0.65
      l6.66,3.08l13.42-0.12c0.25-0.01,0.42,0.07,0.6,0.15c0.69,0.32,0.88,1.16,0.6,1.77c-0.19,0.41-0.59,0.73-1.18,0.75l-10.99,0.08
      l6.95,8.75c0.37,0.46,0.37,0.92,0.18,1.33c-0.29,0.62-1.07,1.05-1.75,0.73C1166.32,251.21,1166.15,251.05,1165.99,250.85z"/>
    <path class="st0" d="M1136.47,259.3l2.4-3.39c1.7-2.41,4.66-3.19,7.37-1.27l9.63,6.8c2.71,1.92,2.97,4.97,1.27,7.37l-2.4,3.39
      c-1.74,2.47-4.69,3.16-7.37,1.27l-9.63-6.8C1135.06,264.78,1134.73,261.77,1136.47,259.3z M1148.89,271.32
      c1.42,1,2.73,0.72,3.69-0.63l2.4-3.39c0.92-1.3,0.79-2.68-0.63-3.69l-9.63-6.8c-1.42-1-2.77-0.66-3.69,0.63l-2.4,3.39
      c-0.96,1.36-0.79,2.68,0.63,3.69L1148.89,271.32z"/>
    <path class="st0" d="M1124.45,288.02l-8.02-4.33c-0.13-0.08-0.26-0.17-0.37-0.27c-0.55-0.57-0.4-1.4,0.09-1.87
      c0.35-0.34,0.92-0.52,1.5-0.19l8.42,4.53l4.62-4.46l-6.04-6.25c-0.6-0.62-0.46-1.4,0.03-1.87c0.46-0.45,1.27-0.59,1.87,0.03
      l13.83,14.32c0.5,0.52,0.48,1.37-0.03,1.87l-5.84,5.64c-2.17,2.1-5.2,2.23-7.48-0.13l-1.37-1.41
      C1123.98,291.88,1123.67,289.82,1124.45,288.02z M1128.93,293.2c1.21,1.25,2.54,1.22,3.74,0.07l4.89-4.72l-5.04-5.22l-4.89,4.72
      c-1.2,1.15-1.27,2.49-0.07,3.74L1128.93,293.2z"/>
    <path class="st0" d="M1094.39,297.44c0.32-0.21,0.68-0.27,1.16-0.09l11.33,4.24l0.52-5.1l-2.77-4.19
      c-0.48-0.72-0.19-1.46,0.37-1.83c0.54-0.35,1.35-0.35,1.83,0.37l11.03,16.67c0.48,0.73,0.19,1.46-0.37,1.83
      c-0.54,0.35-1.35,0.35-1.83-0.37l-5.94-8.98l-1.44,14.87c-0.04,0.48-0.27,0.82-0.56,1c-0.6,0.4-1.47,0.25-1.86-0.35
      c-0.15-0.22-0.24-0.57-0.2-0.91l1-10.27l-11.99-4.48c-0.3-0.12-0.54-0.27-0.69-0.49C1093.58,298.75,1093.79,297.83,1094.39,297.44
      z"/>
    <path class="st0" d="M1032.1,316.52l11.68-1.28c0.71-0.08,1.38,0.46,1.46,1.17l2.16,19.65c0.08,0.71-0.46,1.38-1.17,1.46
      l-11.31,1.24c-0.86,0.09-1.38-0.49-1.46-1.17c-0.07-0.64,0.31-1.36,1.17-1.46l9.99-1.1l-0.77-7.06l-4.43,0.49
      c-0.86,0.09-1.38-0.49-1.46-1.17c-0.07-0.64,0.31-1.36,1.17-1.46l4.43-0.49l-0.8-7.33l-10.37,1.14c-0.86,0.09-1.38-0.49-1.46-1.17
      C1030.86,317.34,1031.23,316.62,1032.1,316.52z"/>
    <path class="st0" d="M1012.31,316.13l4.15,0.28c2.98,0.2,5.14,2.43,4.92,5.67c-0.06,0.87-0.73,1.28-1.41,1.23
      c-0.64-0.04-1.29-0.54-1.23-1.41c0.12-1.73-0.88-2.75-2.46-2.85l-4.15-0.28c-1.66-0.11-2.7,0.73-2.82,2.46l-0.17,2.49
      c-0.11,1.66-0.13,2.49,4.55,2.81c4.75,0.32,7.29,1.36,6.96,6.38l-0.06,0.91c-0.22,3.32-2.69,5.12-5.63,4.92l-4.15-0.28
      c-3.05-0.21-5.14-2.35-4.92-5.63l0.02-0.23c0.06-0.87,0.73-1.28,1.41-1.23c0.64,0.04,1.29,0.54,1.23,1.41l-0.01,0.23
      c-0.12,1.77,0.8,2.71,2.46,2.82l4.15,0.28c1.58,0.11,2.7-0.73,2.82-2.46l0.06-0.9c0.19-2.75-0.23-3.27-4.5-3.56
      c-5.05-0.34-7.28-1.62-7.01-5.62l0.17-2.49C1006.89,317.77,1009.29,315.92,1012.31,316.13z"/>
    <path class="st0" d="M980.48,330.45l4.96,1.19l4.32-18.08c0.2-0.85,0.93-1.14,1.59-0.98c0.62,0.15,1.18,0.75,0.98,1.59
      l-4.32,18.08l4.96,1.19c0.84,0.2,1.14,0.93,0.98,1.59c-0.15,0.62-0.75,1.18-1.59,0.98l-12.49-2.99c-0.85-0.2-1.14-0.93-0.98-1.59
      C979.04,330.8,979.64,330.25,980.48,330.45z"/>
    <path class="st0" d="M964.52,303.33c0.52,0.22,0.91,0.75,0.76,1.51c-0.39,1.72-0.8,3.47-1.25,5.21l6.9,2.89l3.06-4.45
      c0.42-0.6,1.04-0.71,1.56-0.49c0.63,0.26,1.06,0.98,0.76,1.71c-0.04,0.1-0.04,0.19-0.12,0.28c-3.52,5.16-10.6,15.5-10.6,15.5
      c-1.06,1.56-2.74,1.76-4.52,1.01c-2.54-1.07-2.72-2.78-2.23-5.03l3.85-17.19c0.04-0.1,0.09-0.21,0.12-0.28
      C963.11,303.27,963.89,303.06,964.52,303.33z M961.27,322.9c-0.12,0.69,0.23,0.92,0.82,1.16c0.84,0.35,1.27,0,1.9-0.92l5.43-7.96
      l-6.06-2.54L961.27,322.9z"/>
    <path class="st0" d="M945.9,292.77l6.8,4.45c0.6,0.39,0.78,1.23,0.38,1.83l-10.79,16.51c-0.39,0.6-1.23,0.78-1.83,0.38l-6.71-4.38
      c-2.53-1.65-3.33-4.57-1.53-7.32l0.87-1.33c0.89-1.36,2.09-2.16,3.43-2.41c-0.39-1.34-0.13-2.84,0.8-4.26l1.26-1.93
      C940.37,291.55,943.37,291.11,945.9,292.77z M934.43,305.68c-0.95,1.46-0.62,2.75,0.77,3.66l5.6,3.66l3.76-5.76l-5.6-3.66
      c-1.39-0.91-2.71-0.69-3.66,0.77L934.43,305.68z M939.53,297.68c-0.95,1.46-0.6,2.72,0.79,3.63l0.09,0.06l5.6,3.66l4.13-6.33
      l-5.69-3.72c-1.39-0.91-2.71-0.69-3.66,0.77L939.53,297.68z"/>
    <path class="st0" d="M923.58,274.25l7.88,7.34c0.53,0.49,0.56,1.34,0.07,1.87l-13.52,14.52c-0.62,0.66-1.4,0.56-1.9,0.09
      c-0.47-0.44-0.66-1.23-0.04-1.9l12.62-13.55l-6.91-6.44c-0.66-0.62-0.56-1.4-0.09-1.89C922.12,273.82,922.92,273.64,923.58,274.25
      z"/>
    <path class="st0" d="M913.62,262.51l3.8,4.7c0.57,0.71,0.36,1.46-0.17,1.89c-0.5,0.4-1.31,0.48-1.88-0.23l-1.07-1.32l-13.28,10.75
      l1.07,1.32c0.57,0.71,0.36,1.46-0.17,1.89c-0.5,0.4-1.31,0.48-1.88-0.23l-3.8-4.7c-0.57-0.71-0.36-1.46,0.17-1.89
      c0.5-0.4,1.31-0.48,1.88,0.22l1.07,1.32l13.28-10.75l-1.07-1.32c-0.57-0.71-0.33-1.49,0.17-1.89
      C912.24,261.88,913.05,261.81,913.62,262.51z"/>
    <path class="st0" d="M902.08,245l2.08,3.6c1.49,2.59,0.84,5.62-1.97,7.25c-0.75,0.43-1.47,0.1-1.81-0.48
      c-0.32-0.56-0.27-1.37,0.48-1.81c1.51-0.87,1.79-2.26,1-3.63l-2.08-3.6c-0.83-1.44-2.11-1.84-3.61-0.97l-2.16,1.25
      c-1.44,0.83-2.14,1.28,0.2,5.34c2.38,4.12,2.93,6.82-1.42,9.33l-0.79,0.45c-2.88,1.66-5.75,0.62-7.23-1.94l-2.08-3.6
      c-1.53-2.65-0.91-5.58,1.94-7.23l0.2-0.11c0.75-0.43,1.47-0.1,1.81,0.48c0.32,0.56,0.27,1.37-0.48,1.81l-0.2,0.11
      c-1.54,0.89-1.8,2.17-0.97,3.61l2.08,3.6c0.79,1.38,2.11,1.84,3.61,0.97l0.79-0.45c2.39-1.38,2.59-2.02,0.45-5.72
      c-2.53-4.39-2.7-6.95,0.77-8.95l2.16-1.25C897.7,241.42,900.57,242.39,902.08,245z"/>
    <path class="st0" d="M890.37,217.05c0.21,0.61,0,1.4-0.85,1.7l-8.93,3.09l3.14,9.07l8.93-3.09c0.86-0.3,1.5,0.16,1.72,0.8
      c0.21,0.61,0,1.4-0.85,1.7l-18.89,6.55c-0.86,0.3-1.5-0.16-1.72-0.8c-0.21-0.61,0-1.4,0.85-1.7l7.46-2.59l-3.14-9.07l-7.46,2.59
      c-0.86,0.3-1.5-0.16-1.72-0.8c-0.21-0.61,0-1.4,0.85-1.7l18.89-6.55C889.51,215.95,890.15,216.41,890.37,217.05z"/>
    <path class="st0" d="M885.09,191.48l1.78,11.62c0.11,0.71-0.4,1.4-1.11,1.51l-19.54,2.99c-0.71,0.11-1.4-0.4-1.51-1.11L863,195.25
      c-0.13-0.86,0.43-1.4,1.11-1.51c0.64-0.1,1.38,0.25,1.51,1.11l1.52,9.94l7.02-1.08l-0.68-4.41c-0.13-0.86,0.44-1.4,1.11-1.51
      c0.63-0.1,1.38,0.25,1.51,1.11l0.67,4.41l7.28-1.12l-1.58-10.31c-0.13-0.86,0.43-1.4,1.11-1.51
      C884.22,190.27,884.96,190.62,885.09,191.48z"/>
    <path class="st0" d="M884.67,171.41l-0.21,8.2c-0.02,0.72-0.64,1.31-1.36,1.29l-19.71-0.52c-0.72-0.02-1.31-0.64-1.29-1.36
      l0.22-8.2c0.08-3.02,2.14-5.23,5.43-5.15l11.78,0.31C882.8,166.07,884.75,168.38,884.67,171.41z M867.67,168.31
      c-1.78-0.05-2.67,0.91-2.71,2.57l-0.18,6.87l17.07,0.45l0.18-6.87c0.04-1.66-0.8-2.67-2.57-2.71L867.67,168.31z"/>
    <path class="st0" d="M893.43,128.05l-3.03,8.95c-0.28,0.82-1.03,1.05-1.68,0.83c-0.61-0.21-1.11-0.85-0.83-1.68l1.15-3.4
      l-16.17-5.48l-0.95,2.79c-0.28,0.82-1.03,1.05-1.68,0.83c-0.61-0.21-1.11-0.85-0.83-1.68l1.37-4.04c0.23-0.68,1-1.06,1.68-0.83
      l17.43,5.9l1.03-3.04c0.28-0.82,1.03-1.05,1.68-0.83C893.21,126.58,893.7,127.23,893.43,128.05z"/>
    <path class="st0" d="M901.32,106.22c0.81,2.71-0.5,6.56-1.89,9.12c-0.11,0.2-0.2,0.37-0.31,0.56c-0.45,0.75-1.21,0.81-1.77,0.5
      c-0.57-0.31-0.95-1.03-0.55-1.76l0.02-0.03l0.02-0.03c0.14-0.27,0.29-0.53,0.43-0.8c2.43-4.49,2.34-8.06-1.39-10.85
      c-0.06,0.83-0.29,1.65-0.72,2.45l-1.98,3.66c-1.44,2.66-4.28,3.7-7.17,2.13l-3.26-1.76c-2.89-1.57-3.57-4.51-2.13-7.17l1.98-3.66
      c1.4-2.59,4.25-3.72,7.17-2.13c4.45,2.41,4.89,2.64,4.89,2.64C897.71,100.74,900.15,102.28,901.32,106.22z M888.51,98.77
      c-1.53-0.83-2.83-0.33-3.59,1.07l-1.98,3.66c-0.79,1.46-0.49,2.74,1.07,3.59l3.26,1.76c1.56,0.85,2.79,0.4,3.59-1.07l1.98-3.66
      c0.76-1.4,0.46-2.76-1.07-3.59L888.51,98.77z"/>
    <path class="st0" d="M916.85,88.08l-2.61,3.23c-1.9,2.35-4.89,2.85-7.44,0.78c-0.68-0.55-0.62-1.33-0.2-1.86
      c0.4-0.5,1.18-0.74,1.86-0.2c1.38,1.12,2.67,0.9,3.72-0.39l2.62-3.23c1-1.23,0.96-2.63-0.39-3.72l-2.94-2.38
      c-1.35-1.09-2.72-0.84-3.72,0.39l-2.62,3.23c-0.52,0.65-1.03,1.45-1.13,2.29c-0.09,0.12-0.18,0.29-0.35,0.49
      c-0.45,0.56-1.14,1.11-2.5,0.02c-2.47-2-3.49-2.78-6.25-5.01c-0.56-0.45-0.65-1.3-0.2-1.86l6.78-8.37
      c0.55-0.68,1.33-0.62,1.86-0.2c0.5,0.4,0.74,1.18,0.2,1.86l-5.94,7.34l4.35,3.52c0.31-0.62,0.7-1.23,1.13-1.76l2.62-3.23
      c1.85-2.29,4.86-2.88,7.44-0.78l2.94,2.38C918.65,82.73,918.7,85.79,916.85,88.08z"/>
    <path class="st0" d="M937.4,67.91l-9.16,7.9c-0.71,0.62-1.44,0.59-1.86,0.1c-0.22-0.26-0.35-0.64-0.34-1.15l0.47-13.97
      c0.05-2.09-0.04-3.51-1.27-4.94c-1.14-1.32-2.47-1.36-3.73-0.28l-2.83,2.44c-1.2,1.04-1.41,2.41-0.28,3.73
      c0.57,0.66,0.38,1.42-0.14,1.86c-0.49,0.42-1.3,0.52-1.87-0.14c-2.17-2.52-1.68-5.54,0.55-7.46l2.83-2.44
      c2.29-1.97,5.31-1.94,7.46,0.55c1.92,2.23,2.02,4.54,1.94,6.76l-0.38,10.96l6.87-5.92c0.66-0.57,1.42-0.38,1.87,0.14
      C937.95,66.53,938.05,67.34,937.4,67.91z"/>
  </g>
  <g>
    <g>
      <path class="st1" d="M978.32,186.34c-2.58-0.7-5.52-1.07-8.73-1.07c-1.87,0-3.85,0.11-5.86,0.35c-1.19,0.14-3.65,2.44-4.05,4.07
        c-4.9,20.02-13.29,36.77-24.95,49.76l-1.09,1.22c-7.09,7.91-12.69,14.16-22.55,21.38c-0.55,0.4-1.4,0.87-2.33,0.86
        c-0.82,0-1.56-0.37-2.02-1.02c-0.74-1.02-0.73-2.44,0.03-4.78c2.83-8.58,5.74-17.22,8.65-25.87c3.76-11.16,7.64-22.7,11.3-33.98
        c1.32-4.07,1.53-6.8-1.27-8.72c-3.99-2.74-7.99-4.2-11.57-4.21c-3.42-0.01-6.3,1.32-8.57,3.85c-0.38,0.34-0.75,0.66-1.15,1.06
        c-0.45,0.46-15.35,16.24-29.76,31.5c-19.81,20.98-32.82,34.76-33.25,35.19l-7.45,7.56c-1.17,0.97-2.13,1.41-3.03,1.41
        c-0.75,0-1.44-0.33-1.89-0.91c-0.81-1.03-0.59-2.43-0.34-3.46c0.59-2.14,1.4-4.31,2.18-6.41c0.29-0.79,0.58-1.57,0.86-2.34
        c2.73-7.63,5.48-15.24,8.23-22.86c3.74-10.36,7.48-20.71,11.17-31.09c0.46-1.28,0.55-2.83,0.21-3.62
        c-1.8-4.19-8.4-7.49-15.03-7.51c-3.16-0.01-5.81,0.78-7.47,2.22c-9.53,8.26-12.71,11.85-19.67,19.73
        c-1.77,2.01-3.78,4.28-6.04,6.78c-1.43,2.07-6.66,7.87-10.47,12.11c-1.32,1.46-2.41,2.67-2.99,3.34l-0.1,0.12l-0.12,0.1
        c-0.48,0.39-1.13,0.84-1.95,0.84l-1-0.07l-0.56-0.62c-0.73-0.81-0.61-1.9-0.51-2.65c0.3-1.29,5.44-18.03,8.03-25.01
        c1.98-5.32,2.9-8.8,1.8-10.85c-1.08-1.99-4.48-3.48-11.74-5.13c-0.44-0.1-0.89-0.16-1.34-0.19c-0.56-0.04-1.09-0.07-1.6-0.07
        c-2.58-0.01-4.44,0.56-5.88,1.87c-1.02,0.62-2.08,1.45-3.19,2.59c-0.58,0.59-18.29,18.4-31.35,31.52
        c0.52-5.1,0.45-10.31-0.21-15.64c-1.36-10.97-9.5-18.35-20.24-18.38c-1.36,0-2.76,0.11-4.17,0.34c-0.56,0.09-1.15,0.14-1.74,0.13
        c-1.25,0-2.52-0.21-3.68-0.59c-1.35-0.45-2.4-1.02-3.42-1.56c-1.86-1-3.46-1.86-6.74-1.86c-0.3,0-0.62,0.01-0.94,0.02
        c-15.5,0.83-27.63,9.56-36.54,19.53c-9.82,9.83-30.33,29.91-33.7,33.1c-0.19,0.18-20.39,18.13-23.59,18.2
        c-0.7-0.03-1.32-0.38-1.71-0.95c-0.77-1.12-0.48-2.62,0.45-5.38l4.41-13.47c3.98-12.13,8.09-24.68,12.02-37.06
        c0.38-1.21,0.25-3.15-0.27-3.84c-2.59-3.48-9.22-5.92-16.1-5.93c-3.73-0.01-6.96,0.72-9.1,2.05
        c-12.84,7.98-26.79,20.94-37.97,32.94c0,0-4.01,4.3-2.98-0.29c1.03-4.59,5.35-17.79,7.83-25.43c1.75-5.38,3.51-10.76,5.26-16.14
        c3.94-12.05,8.01-24.51,11.89-36.8l0.38-1.17c1.35-4.12,2.08-7-0.01-9.38c-2.81-3.2-6.68-4.69-12.17-4.7
        c-1.1,0-2.22,0.05-3.33,0.15c-3.69,0.32-6.08,2.63-7.72,7.47c-5.07,14.92-10.38,30.78-16.72,49.93
        c-1.92,5.8-3.83,11.61-5.73,17.41c-8.89,6.39-42.76,36.25-47.42,40.53c-4.4,4.04-14.72,13.5-22.13,16.47
        c-0.32,0.09-0.62,0.13-0.91,0.13c-0.82,0-1.55-0.38-1.99-1.02c-0.82-1.21-0.34-2.72,0.23-4.18c1.86-5.6,3.54-10.73,5.16-15.7
        c3-9.19,5.83-17.87,9.42-28.18c0.69-1.99,3.55-3.64,5.55-3.73c2.52-0.12,17.19-0.06,17.19-0.06c3.15,0.01,4.84-1.01,5.66-3.39
        c0,0,2.6-7.51,3.45-11.06c0.58-2.4,0.33-3.37,0.02-3.77c-0.32-0.41-1.25-0.91-3.87-0.96c-2.25-0.04-20.34-0.07-20.34-0.07
        l1.23-4.05c0.32-1.06,0.59-1.98,0.89-2.89c1.3-3.95,2.62-7.9,3.94-11.84c2.88-8.59,5.85-17.47,8.51-26.27
        c1.61-5.32,1.62-8.99,0.03-11.23c-1.64-2.31-5.33-3.56-11.29-3.81l-0.65-0.01l-1.67,0.01c-0.33,0-1.46-0.05-1.7-0.05
        c-3.85-0.01-6.06,1.76-7.4,5.91c-3.37,10.48-6.97,21.08-10.46,31.33l-3.24,9.56c-4.67,13.82-5.42,14.36-20.11,14.32
        c-12.59-0.03-12.59-0.03-16.9,11.6c-0.89,2.41-1.09,4.04-0.58,4.87c0.47,0.76,1.84,1.27,4.07,1.51c2.73,0.29,5.51,0.34,7.64,0.34
        c1.06,0,9.68,0.05,10.55,0.11l3.13,0.1c0,0-2.24,2.2-3.91,4.1c-2.68,3.06-45.31,45.19-53.82,53.6l-0.21,0.2
        c-0.9,0.74-1.63,1.07-2.37,1.06c-0.7,0-1.34-0.31-1.75-0.86c-0.73-0.96-0.51-2.2-0.23-3.22c0.46-1.24,0.93-2.49,1.4-3.73
        c1.01-2.66,2.02-5.33,2.92-8.02l2.73-8.14c4.91-14.63,9.99-29.77,14.8-44.71c1.51-4.68,0.73-6.05-4.35-7.71
        c-2.37-0.78-4.68-1.17-6.86-1.18c-5.5-0.01-10.51,2.33-15.74,7.38c-7.29,7.03-14.87,13.94-22.19,20.62
        c-3.16,2.88-6.31,5.75-9.43,8.63c0,0-5.62,5.97-3.04-1.99c1.68-5.2,6.07-17.25,7.79-22.91c0.42-1.39,0.14-3.59-0.63-4.9
        c-2.62-4.5-6.48-6.89-11.16-6.9c-1.61,0-3.32,0.27-5.07,0.83c-0.95,0.3-1.96,0.95-2.71,1.63c-0.92,0.6-1.86,1.35-2.85,2.35
        c-0.52,0.53-15.28,14.88-34.53,33.58c-9.84,9.56-18.04,17.53-18.41,17.89c-0.17,0.17-17.44,16.82-22.01,18.26
        c-0.23,0.07-0.46,0.11-0.69,0.11l-1.15-0.1l-0.56-0.78c-0.55-0.77-0.72-1.89,0.27-4.82c9.3-27.75,17.35-51.8,26.68-79.53
        c2.94-8.72,5.89-17.44,8.85-26.15c3.35-9.89,6.71-19.78,10.03-29.68c0.94-2.8,1.07-4.72,0.39-5.87
        c-0.66-1.11-2.31-1.89-5.05-2.39c-2.38-0.43-5.19-0.88-7.94-0.89l-0.33,0c-10.49,0.11-20.99,0.26-31.48,0.42
        c-11.34,0.17-22.68,0.33-34.01,0.44c-14.2,0.14-31.24,12.48-35.76,25.89c-2.95,8.75-6.08,17.6-9.1,26.15
        c-1.96,5.53-3.92,11.07-5.84,16.62c-1.12,3.23-3.01,6.52-8.58,6.51c-0.37,0-0.75-0.02-1.16-0.04c-3.9-0.27-6.85-0.46-9.24-0.46
        c-7.94-0.02-8.79,1.71-14.33,13l-0.12,0.24c-0.11,0.22-0.23,0.43-0.35,0.64c-0.12,0.2-0.24,0.4-0.32,0.62
        c-0.61,1.72-1.13,4.08-0.1,5.57c1.04,1.49,3.45,1.84,5.29,1.87c1.98,0.03,3.96,0.04,5.96,0.05l12.97,0.01l-0.89,2.5
        c-1.37,3.86-2.71,7.68-4.04,11.48c-2.95,8.44-5.74,16.42-8.81,24.49c-8.82,23.25-28,36.54-52.61,36.48
        c-6.14-0.01-12.47-0.88-18.81-2.56c-22.26-5.92-36.44-21.85-41.02-46.07c-2.62-13.89,3.83-35.49,22.79-39.93
        c4.76-1.11,9.57-1.56,13.65-1.85c5.49-0.39,10.78-5.09,11.33-10.08c0.33-3.02,0.31-10.28-7.05-12.61
        c-4.85-1.53-9.59-2.31-14.08-2.32c-7.35-0.02-14.36,2.04-20.82,6.1c-25.9,16.3-35.7,41.91-29.14,76.13
        c2.77,14.43,12.41,24.73,22.62,35.63l0.32,0.34c15.22,16.26,35.07,19.97,50.66,21.39c2.43,0.22,4.93,0.34,7.41,0.34
        c10.4,0.03,21.43-1.87,32.8-5.62c20.33-6.72,33.36-18.18,39.85-35.03c6.2-16.12,12.36-33.45,18.81-52.98
        c1.41-4.26,3.48-5.85,7.65-5.84l0.6,0.01c3.01,0.09,6.02,0.12,9.04,0.13c2.12,0.01,4.24,0,6.37-0.01
        c2.13-0.01,4.26-0.01,6.39-0.01l29.35,0.07c0,0-1.85,5.89-2.36,7.53c-1.09,3.5-2.1,6.77-3.21,10.01
        c-1.87,5.44-3.76,10.87-5.65,16.3c-3.26,9.34-6.62,19-9.79,28.55c-1.86,5.6-1.42,8.72,1.49,10.78
        c6.49,4.58,13.57,7.01,20.48,7.03c2.41,0.01,4.82-0.28,7.17-0.85c7.17-1.74,28.51-19.65,37.73-28.06
        c4.29-3.91,17.51-16.69,30.05-29.14c-3.18,9.17-6.35,18.31-9.46,27.31l-6.24,18.04c-0.59,1.72-1.52,5.91,2.75,7.73
        c4.54,1.93,7.06,2.73,11.51,2.99l0.29,0.01c2.29,0.01,5.42-1.34,6.55-2.84c3.37-4.43,7.63-8.97,10.71-13.53
        c3.33-4.92,7.92-9.82,11.63-14.62c4.02-5.21,8.51-9.98,13.26-15.03c2.16-2.29,4.36-4.64,6.59-7.11l0.64-0.62l0.83,0
        c0.87,0,1.63,0.39,2.09,1.07c0.84,1.24,0.39,2.85-0.27,4.53c-1.21,3.35-2.45,6.69-3.69,10.03c-2.89,7.79-5.88,15.85-8.43,23.87
        c-0.83,2.59-0.47,6.72,0.68,7.9c4.78,4.88,9.79,7.25,15.32,7.26c2.29,0.01,4.76-0.4,7.38-1.21c14.61-4.11,39.64-28.6,56.76-47.93
        c-3.5,10.37-7.06,20.96-10.4,31.49c-0.6,1.9-0.26,6.54,0.66,9.15c2.85,4.81,8.72,7.47,16.55,7.49c4.7,0.01,9.84-0.95,14.88-2.77
        c24.73-13.66,45.59-32.12,60.61-47.63c-3.9,11.76-7.86,23.56-11.89,35.24c-1.64,4.74-0.93,7.36,2.72,9.99
        c3.58,2.59,7.76,5.24,11.57,5.25c3.41,0.01,6.57-2.15,9.66-6.59c10.32-14.84,24.3-30.56,36.79-42.86c0,0,7.06-6.16,8.06-7.12
        c6.41-6.18,3.28,4.04,3.28,4.04c-3.29,12.98-7.66,25.14-11.5,35.52c-1.71,4.62-0.89,7.75,2.67,10.15
        c2.4,1.62,5.03,3.05,7.58,4.44l1.82,1.01c1.46,0.57,3.12,0.86,4.92,0.86c3.45,0.01,7.19-1.04,10.27-2.87
        c8.22-4.89,34.86-27.39,43.2-36.48c0.31-0.33,0.67-0.71,1.07-1.12c0.05,3.05,0.4,6.08,1.08,9.11
        c4.2,18.75,14.31,27.51,31.81,27.55c2.93,0.01,6.11-0.23,9.47-0.71c6.16-0.88,11.99-2.92,17.57-6.06l-0.03,0.2
        c8.83-4.36,26.76-19.48,35-26.99c3.22-2.94,12.57-12.23,22.22-22.08c-0.73,2.16-1.45,4.32-2.18,6.47
        c-4.45,13.18-9.05,26.81-13.26,40.29c-0.33,1.08,0.98,4.4,2.26,5.17c2.09,1.25,3.73,1.77,6.08,2.44
        c1.69,0.48,4.86,0.93,7.62,0.69c1.96-0.17,4.45-1.59,6.59-3.82c7.01-7.33,12.77-13.66,18.97-20.33
        c5.04-5.41,9.86-10.02,14.97-14.9c2.23-2.14,4.51-4.3,6.85-6.59c0.84-0.81,1.64-1.2,2.46-1.2c0.8,0,1.54,0.41,1.96,1.09
        c0.6,0.95,0.55,2.36-0.1,3.73c-1.08,2.79-2.18,5.58-3.28,8.37c-2.78,7.07-4.71,11.93-7.31,19.19c-0.61,1.71-1.75,7.07,0.73,9.55
        c4.16,4.16,9.59,6.71,18.5,6.74c0.55,0,1.1-0.02,1.65-0.05c8.53-0.57,20.59-7.45,27.62-13.64c6.31-5.56,24.01-23.99,39.44-40.29
        c-0.49,1.54-0.98,3.09-1.47,4.62c-3.01,9.5-6.03,19-9.12,28.48c-2,6.13-3.01,10.04,1.36,13.01c4.51,3.06,9.59,5.03,14.3,5.53
        c0.79,0.08,1.59,0.12,2.38,0.13c5.77,0.01,12.24-1.99,19.78-6.14c3.44-1.89,6.84-4.08,10.16-6.77c1.4-1.14,6.51-5.31,6.51-5.31
        s3.21-2.49,2.2,0.05l-2.37,6.98c-6.14,18.66-18.27,51.37-24.46,70.01c-1.47,4.4-1.02,6.81,1.69,9.21c2.95,2.61,6.24,3.99,9.53,4
        c6.18,0.01,11.53-4.73,13.97-12.4c5.93-18.61,17.9-51.27,23.88-69.86c4.31-13.4,8.62-26.79,12.91-40.19l0.73-2.28
        c3.68-11.48,7.48-23.35,10.96-35.1c1.22-4.12,1.15-8.01-0.18-10.42C980.55,187.47,979.57,186.68,978.32,186.34z M246.41,192.54
        c-7.66-0.03-15.31-0.05-23.07-0.07l-29.02-0.07l0.84-2.47c1.21-3.56,2.36-7.09,3.5-10.58c2.65-8.11,5.15-15.76,8.16-23.42
        c4.34-11.05,13.01-17.03,25.09-17.28c3.56-0.07,7.11-0.09,10.67-0.08c2.55,0.01,5.1,0.03,7.66,0.04
        c2.55,0.02,5.09,0.04,7.64,0.04c1.68,0,3.36,0,5.15-0.01c2.47,0.01,4.23,0.72,5.23,2.14c0.64,0.91,1.23,2.51,0.36,5.02
        c-2.1,6.04-4.27,12.05-6.44,18.07c-2.72,7.55-5.54,15.36-8.17,23.08C252.68,190.82,250.34,192.54,246.41,192.54z M683.47,266.88
        c-1.34,0.47-2.75,0.71-4.2,0.7c0,0,0,0,0,0c-7.18-0.02-14.33-5.89-15.95-13.1c-1.85-8.25,0.42-13.76,3.05-20.13
        c4.67-11.31,11.91-19.91,21.51-25.55c2.69-1.58,6.03-3.54,9.73-3.54c2.18,0.01,4.27,0.7,6.16,2.03c0.15,0.07,0.63,0.1,0.92,0.13
        l0.3,0.02c10.38,0.9,13.36,4.06,13.29,14.2C716.88,240.94,701.92,260.38,683.47,266.88z"/>
    </g>
    <g>
      <path class="st1" d="M1075.23,184.71c-0.15-1.88-1.53-3.82-4.22-5.96c-2.98-2.36-6.74-4.31-10.86-5.63
        c-0.55-0.18-1.1-0.27-1.62-0.27c-1.74,0-3.27,0.95-4.55,2.84c-5.2,7.66-9.96,14.51-15.58,20.75
        c-7.67,8.52-15.71,16.95-23.49,25.1c-4.14,4.34-8.29,8.69-12.4,13.06l-0.24,0.26c-0.88,0.93-2.35,2.5-2.37,3.32
        c-0.14,5.9-0.17,6.96,3.79,9.55c2.01,1.32,3.95,1.96,5.92,1.97c1.96,0,4.02-0.61,6.3-1.88c5.21-2.9,9.2-6.82,12.74-10.63
        c3.92-4.22,7.7-9.01,11.55-14.62l2.47-3.59l1.88,8.71c0.71,3.26,1.39,6.38,2.03,9.51c1.81,8.84,0.3,17.24-4.38,24.3
        c-3.84,5.79-9.32,8.97-15.43,8.95c-6.67-0.02-13.34-3.74-18.78-10.49c-2.9-3.6-5.31-5.14-8.05-5.15c-1.59,0-3.44,0.51-5.66,1.56
        c-6.88,3.29-8.97,7.29-7.2,13.82c1,3.69,3.24,7.29,7.05,11.34c5.45,5.8,10.61,8.57,19.03,10.24c5.33,1.05,10,1.57,14.28,1.58
        c7.73,0.02,14.3-1.61,20.08-4.98c14.68-8.55,22.21-22.69,22.38-42.03c0.07-7.77-1.55-15.79-3.12-23.54
        c-0.4-1.98-0.8-3.95-1.17-5.92c-1.98-10.47,0.07-18.61,6.46-25.64C1074.34,188.72,1075.38,186.58,1075.23,184.71z"/>
    </g>
    <g>
      <path class="st1" d="M1000.64,169.93c3.34,1.18,5.15,2.61,5.7,4.49c0.71,2.45-0.99,4.6-2.49,6.5c-0.36,0.46-0.73,0.93-1.07,1.4
        c-0.28,0.39-0.61,0.78-0.94,1.17c-0.38,0.44-1.02,1.19-1.05,1.47l-0.04,0.47c-0.16,1.82-0.42,4.57,0.33,5.52
        c0.61,0.78,1.91,2.09,3.68,2.1c0.8,0,1.64-0.26,2.5-0.78c8.89-5.31,15.29-12.71,19.03-21.97c2.86-7.08,2.89-13.09,0.1-17.39
        c-2.68-4.11-7.89-6.5-14.49-6.72c-0.47,0.03-0.95,0.05-1.43,0.06c-0.92,0.03-1.85,0.07-2.76,0.2
        c-4.35,0.64-9.99,6.15-10.98,10.72C995.64,162.16,997.09,168.68,1000.64,169.93z"/>
    </g>
  </g>
</g>
</svg>
